# xmcd
#
# Track frame offsets:
#	150
#	16578
#	29348
#	38958
#	49335
#	62839
#	75079
#	85577
#	100698
#	114890
#
# Disc length: 1704 seconds
# Revision: 0
# Processed by: cddbd v1.5.2PL0 Copyright (c) Steve Scherf et al.
# Submitted via: dBpowerAMP V12.0
#
DISCID=6406a60a
DTITLE=Matt Wallace - For A Season
DYEAR=2014
DGENRE=Country
TTITLE0=Creepin' In
TTITLE1=Old Man Winter
TTITLE2=Got Leavin On Her Mind
TTITLE3=Another Mile
TTITLE4=Long Gone 
TTITLE5=Home In Tennessee
TTITLE6=Have You Come To Say Goodbye
TTITLE7=Mercy Walked In
TTITLE8=Lonesome Homesick Blues
TTITLE9=I Want To Know More About My Lord
EXTD=
EXTT0=
EXTT1=
EXTT2=
EXTT3=
EXTT4=
EXTT5=
EXTT6=
EXTT7=
EXTT8=
EXTT9=
PLAYORDER=
